<svg width="180" height="27" viewBox="0 0 180 27" fill="none" xmlns="http://www.w3.org/2000/svg">
<path d="M20.5597 0.619998V6.236H13.7917V26H6.73573V6.236H0.0397344V0.619998H20.5597ZM30.0823 0.619998V15.344C30.0823 16.712 30.3943 17.768 31.0183 18.512C31.6663 19.256 32.6383 19.628 33.9343 19.628C35.2303 19.628 36.2023 19.256 36.8503 18.512C37.5223 17.744 37.8583 16.688 37.8583 15.344V0.619998H44.9143V15.344C44.9143 17.672 44.4223 19.664 43.4383 21.32C42.4543 22.952 41.1103 24.188 39.4063 25.028C37.7263 25.844 35.8543 26.252 33.7903 26.252C31.7263 26.252 29.8783 25.844 28.2463 25.028C26.6383 24.188 25.3663 22.952 24.4303 21.32C23.5183 19.688 23.0623 17.696 23.0623 15.344V0.619998H30.0823ZM61.6512 26L56.6112 16.64H55.8552V26H48.7992V0.619998H59.9232C61.9632 0.619998 63.6912 0.979999 65.1072 1.7C66.5232 2.396 67.5912 3.368 68.3112 4.616C69.0312 5.84 69.3912 7.22 69.3912 8.756C69.3912 10.484 68.9112 12.008 67.9512 13.328C67.0152 14.624 65.6352 15.548 63.8112 16.1L69.5352 26H61.6512ZM55.8552 11.816H59.3472C60.3072 11.816 61.0272 11.588 61.5072 11.132C61.9872 10.676 62.2272 10.016 62.2272 9.152C62.2272 8.336 61.9752 7.7 61.4712 7.244C60.9912 6.764 60.2832 6.524 59.3472 6.524H55.8552V11.816ZM79.656 0.619998V26H72.6V0.619998H79.656ZM107.182 26H100.126L90.7302 11.816V26H83.6742V0.619998H90.7302L100.126 14.984V0.619998H107.182V26ZM127.402 8.972C126.994 8.3 126.43 7.784 125.71 7.424C125.014 7.064 124.186 6.884 123.226 6.884C121.45 6.884 120.046 7.46 119.014 8.612C118.006 9.764 117.502 11.312 117.502 13.256C117.502 15.44 118.042 17.108 119.122 18.26C120.226 19.388 121.822 19.952 123.91 19.952C126.382 19.952 128.146 18.836 129.202 16.604H122.11V11.528H135.286V18.368C134.734 19.712 133.918 20.972 132.838 22.148C131.782 23.324 130.438 24.296 128.806 25.064C127.174 25.808 125.314 26.18 123.226 26.18C120.682 26.18 118.426 25.64 116.458 24.56C114.514 23.456 113.002 21.932 111.922 19.988C110.866 18.02 110.338 15.776 110.338 13.256C110.338 10.76 110.866 8.54 111.922 6.596C113.002 4.628 114.514 3.104 116.458 2.024C118.402 0.92 120.646 0.368 123.19 0.368C126.382 0.368 129.022 1.136 131.11 2.672C133.198 4.208 134.494 6.308 134.998 8.972H127.402ZM161.394 21.86H152.394L151.026 26H143.61L152.862 0.619998H160.998L170.214 26H162.762L161.394 21.86ZM159.63 16.46L156.894 8.252L154.194 16.46H159.63ZM179.57 0.619998V26H172.514V0.619998H179.57Z" fill="white"/>
</svg>
