<svg width="16" height="16" viewBox="0 0 16 16" fill="none" xmlns="http://www.w3.org/2000/svg">
<path d="M8.00609 0.68C9.39276 0.68 10.6194 0.986666 11.6861 1.6C12.7528 2.2 13.5794 3.04667 14.1661 4.14C14.7661 5.23333 15.0661 6.48 15.0661 7.88C15.0661 9.28 14.7661 10.5333 14.1661 11.64C13.5794 12.7333 12.7528 13.5933 11.6861 14.22C10.6194 14.8333 9.39276 15.14 8.00609 15.14C6.61943 15.14 5.38609 14.8333 4.30609 14.22C3.23943 13.5933 2.40609 12.7333 1.80609 11.64C1.21943 10.5333 0.926094 9.28 0.926094 7.88C0.926094 6.48 1.21943 5.23333 1.80609 4.14C2.40609 3.04667 3.23943 2.2 4.30609 1.6C5.38609 0.986666 6.61943 0.68 8.00609 0.68ZM8.00609 1.88C6.83276 1.88 5.80609 2.12667 4.92609 2.62C4.05943 3.11333 3.39276 3.81333 2.92609 4.72C2.45943 5.61333 2.22609 6.66667 2.22609 7.88C2.22609 9.09333 2.45943 10.1533 2.92609 11.06C3.39276 11.9667 4.05943 12.6733 4.92609 13.18C5.80609 13.6733 6.83276 13.92 8.00609 13.92C9.17943 13.92 10.1994 13.6733 11.0661 13.18C11.9461 12.6733 12.6194 11.9667 13.0861 11.06C13.5528 10.14 13.7861 9.08 13.7861 7.88C13.7861 6.68 13.5528 5.62667 13.0861 4.72C12.6194 3.81333 11.9461 3.11333 11.0661 2.62C10.1994 2.12667 9.17943 1.88 8.00609 1.88ZM8.04609 3.44C7.17943 3.44 6.40609 3.62667 5.72609 4C5.04609 4.36 4.51276 4.88 4.12609 5.56C3.75276 6.22667 3.56609 7.00667 3.56609 7.9C3.56609 8.79333 3.75276 9.58 4.12609 10.26C4.51276 10.9267 5.04609 11.4467 5.72609 11.82C6.40609 12.18 7.17943 12.36 8.04609 12.36C9.12609 12.36 10.0528 12.0467 10.8261 11.42C11.6128 10.7933 12.0928 9.96 12.2661 8.92H8.96609C8.76609 9.48 8.41276 9.76 7.90609 9.76C7.51943 9.76 7.21276 9.60667 6.98609 9.3C6.77276 8.98 6.66609 8.51333 6.66609 7.9C6.66609 7.28667 6.77276 6.82667 6.98609 6.52C7.21276 6.2 7.51943 6.04 7.90609 6.04C8.18609 6.04 8.41276 6.12 8.58609 6.28C8.75943 6.42667 8.88609 6.62667 8.96609 6.88H12.2661C12.0928 5.82667 11.6128 4.99333 10.8261 4.38C10.0528 3.75333 9.12609 3.44 8.04609 3.44Z" fill="white"/>
</svg>
